<svg width="216" height="49" viewBox="0 0 216 49" fill="none" xmlns="http://www.w3.org/2000/svg">
<g clip-path="url(#clip0_73_81)">
<path d="M27.5001 5L49 46H6L27.5001 5Z" stroke="black" stroke-width="3"/>
<path d="M27.5001 0L55 49H0L27.5001 0Z" stroke="black"/>
<path d="M27.6667 25.0051C31.5009 25.0858 34.9102 26.1193 37.321 27.6785C39.746 29.2468 41.0414 31.2536 40.999 33.2843C40.9567 35.3151 39.5788 37.2656 37.0905 38.7305C34.6168 40.1866 31.1675 41.0758 27.3333 40.9949C23.4991 40.9141 20.0898 39.8809 17.679 38.3216C15.254 36.753 13.9586 34.7464 14.001 32.7157C14.0433 30.6849 15.4212 28.7346 17.9095 27.2696C20.3832 25.8133 23.8325 24.9243 27.6667 25.0051Z" stroke="black" stroke-width="3"/>
</g>
<path d="M70 30.04C70.112 30.04 70.224 29.928 70.336 29.704C70.448 29.48 70.504 29.112 70.504 28.6V17.08C70.504 16.568 70.448 16.208 70.336 16C70.224 15.776 70.112 15.656 70 15.64H77.536C78.96 15.64 80.144 15.776 81.088 16.048C82.048 16.32 82.816 16.696 83.392 17.176C83.984 17.656 84.432 18.208 84.736 18.832C85.04 19.44 85.24 20.088 85.336 20.776C85.448 21.464 85.504 22.16 85.504 22.864C85.504 23.504 85.448 24.168 85.336 24.856C85.24 25.528 85.032 26.176 84.712 26.8C84.408 27.408 83.96 27.96 83.368 28.456C82.792 28.936 82.024 29.32 81.064 29.608C80.12 29.896 78.944 30.04 77.536 30.04H70ZM74.152 28.096H77.104C79.152 28.096 80.616 27.696 81.496 26.896C82.376 26.096 82.816 24.808 82.816 23.032V22.6C82.816 21.352 82.64 20.368 82.288 19.648C81.936 18.912 81.344 18.392 80.512 18.088C79.68 17.768 78.544 17.608 77.104 17.608H74.152C73.688 17.608 73.408 17.64 73.312 17.704C73.232 17.752 73.192 17.944 73.192 18.28V27.376C73.192 27.728 73.232 27.936 73.312 28C73.408 28.064 73.688 28.096 74.152 28.096ZM89.151 16.504C88.687 16.504 88.327 16.376 88.071 16.12C87.815 15.848 87.687 15.536 87.687 15.184C87.687 14.816 87.807 14.504 88.047 14.248C88.303 13.992 88.671 13.864 89.151 13.864C89.631 13.864 89.991 13.992 90.231 14.248C90.487 14.504 90.615 14.816 90.615 15.184C90.615 15.536 90.487 15.848 90.231 16.12C89.975 16.376 89.615 16.504 89.151 16.504ZM87.687 30.04C87.799 30.04 87.903 29.928 87.999 29.704C88.111 29.48 88.167 29.112 88.167 28.6V20.248C88.167 19.736 88.111 19.376 87.999 19.168C87.903 18.944 87.799 18.824 87.687 18.808H90.615V28.6C90.615 29.112 90.663 29.48 90.759 29.704C90.871 29.928 90.983 30.04 91.095 30.04H87.687ZM99.004 35.896C97.612 35.896 96.396 35.76 95.356 35.488C94.316 35.216 93.572 34.952 93.124 34.696L93.604 32.536V31.84C93.828 32.176 94.18 32.528 94.66 32.896C95.14 33.264 95.74 33.576 96.46 33.832C97.18 34.088 97.996 34.216 98.908 34.216C99.98 34.216 100.772 34.04 101.284 33.688C101.812 33.336 102.156 32.848 102.316 32.224C102.492 31.6 102.58 30.888 102.58 30.088V29.2L102.628 28.768L102.58 28.72C102.26 29.12 101.764 29.48 101.092 29.8C100.436 30.12 99.628 30.28 98.668 30.28C97.148 30.28 95.964 30.024 95.116 29.512C94.284 29 93.7 28.304 93.364 27.424C93.044 26.544 92.884 25.552 92.884 24.448C92.884 23.328 93.044 22.328 93.364 21.448C93.7 20.568 94.284 19.872 95.116 19.36C95.964 18.832 97.148 18.568 98.668 18.568C99.628 18.568 100.428 18.696 101.068 18.952C101.708 19.208 102.212 19.536 102.58 19.936L102.628 19.912L102.58 19.456V18.808H105.508C105.396 18.824 105.284 18.944 105.172 19.168C105.076 19.392 105.028 19.768 105.028 20.296V29.488C105.028 31.808 104.532 33.456 103.54 34.432C102.564 35.408 101.052 35.896 99.004 35.896ZM98.836 28.576C99.828 28.576 100.596 28.424 101.14 28.12C101.684 27.8 102.06 27.336 102.268 26.728C102.476 26.104 102.58 25.344 102.58 24.448C102.58 23.568 102.468 22.816 102.244 22.192C102.036 21.568 101.66 21.088 101.116 20.752C100.588 20.416 99.828 20.248 98.836 20.248C97.492 20.248 96.564 20.632 96.052 21.4C95.556 22.168 95.308 23.192 95.308 24.472C95.308 25.752 95.556 26.76 96.052 27.496C96.548 28.216 97.476 28.576 98.836 28.576ZM109.284 16.504C108.82 16.504 108.46 16.376 108.204 16.12C107.948 15.848 107.82 15.536 107.82 15.184C107.82 14.816 107.94 14.504 108.18 14.248C108.436 13.992 108.804 13.864 109.284 13.864C109.764 13.864 110.124 13.992 110.364 14.248C110.62 14.504 110.748 14.816 110.748 15.184C110.748 15.536 110.62 15.848 110.364 16.12C110.108 16.376 109.748 16.504 109.284 16.504ZM107.82 30.04C107.932 30.04 108.036 29.928 108.132 29.704C108.244 29.48 108.3 29.112 108.3 28.6V20.248C108.3 19.736 108.244 19.376 108.132 19.168C108.036 18.944 107.932 18.824 107.82 18.808H110.748V28.6C110.748 29.112 110.796 29.48 110.892 29.704C111.004 29.928 111.116 30.04 111.228 30.04H107.82ZM117.961 30.28C116.857 30.28 116.057 30.048 115.561 29.584C115.065 29.104 114.817 28.328 114.817 27.256V20.488H112.657V18.808C113.393 18.808 113.969 18.72 114.385 18.544C114.801 18.352 115.097 18.024 115.273 17.56C115.449 17.096 115.537 16.448 115.537 15.616H117.265V18.808H121.849C121.737 18.968 121.625 19.208 121.513 19.528C121.417 19.832 121.369 20.152 121.369 20.488H117.265V26.896C117.265 27.632 117.401 28.096 117.673 28.288C117.945 28.48 118.289 28.576 118.705 28.576C119.297 28.576 119.833 28.4 120.313 28.048C120.793 27.696 121.137 27.352 121.345 27.016V27.76L121.585 29.128C121.345 29.384 120.913 29.64 120.289 29.896C119.665 30.152 118.889 30.28 117.961 30.28ZM127.779 30.28C126.035 30.28 124.811 29.968 124.107 29.344C123.403 28.704 123.051 27.848 123.051 26.776C123.051 25.656 123.475 24.776 124.323 24.136C125.171 23.496 126.467 23.176 128.211 23.176C129.459 23.176 130.459 23.304 131.211 23.56C131.963 23.8 132.467 24.008 132.723 24.184C132.707 22.76 132.435 21.752 131.907 21.16C131.395 20.552 130.483 20.248 129.171 20.248C128.227 20.248 127.379 20.36 126.627 20.584C125.891 20.792 125.299 21.024 124.851 21.28C124.403 21.52 124.123 21.696 124.011 21.808V21.328L123.771 19.528C123.915 19.464 124.227 19.36 124.707 19.216C125.187 19.056 125.819 18.912 126.603 18.784C127.387 18.64 128.307 18.568 129.363 18.568C131.379 18.568 132.851 19 133.779 19.864C134.707 20.712 135.171 22.024 135.171 23.8V28.6C135.171 29.048 135.219 29.376 135.315 29.584C135.427 29.776 135.539 29.928 135.651 30.04H132.723V29.32L132.771 28.864L132.723 28.84C132.195 29.32 131.507 29.68 130.659 29.92C129.811 30.16 128.851 30.28 127.779 30.28ZM128.571 28.576C129.867 28.576 130.883 28.392 131.619 28.024C132.355 27.64 132.723 27.16 132.723 26.584C132.723 26.104 132.403 25.696 131.763 25.36C131.139 25.024 130.163 24.856 128.835 24.856C127.603 24.856 126.731 25.016 126.219 25.336C125.723 25.656 125.475 26.136 125.475 26.776C125.475 27.4 125.715 27.856 126.195 28.144C126.691 28.432 127.483 28.576 128.571 28.576ZM138.063 30.04C138.175 30.04 138.287 29.928 138.399 29.704C138.511 29.48 138.567 29.112 138.567 28.6V17.08C138.567 16.568 138.511 16.208 138.399 16C138.287 15.776 138.175 15.656 138.063 15.64H141.759C141.647 15.64 141.535 15.752 141.423 15.976C141.311 16.2 141.255 16.576 141.255 17.104V27.352C141.255 27.704 141.295 27.92 141.375 28C141.471 28.064 141.759 28.096 142.239 28.096H148.311C149.239 28.096 149.983 27.992 150.543 27.784C151.119 27.56 151.495 27.344 151.671 27.136L151.191 29.536V30.04H138.063ZM159.109 30.04C159.221 30.04 159.333 29.928 159.445 29.704C159.557 29.48 159.613 29.112 159.613 28.6V17.08C159.613 16.568 159.557 16.208 159.445 16C159.333 15.776 159.221 15.656 159.109 15.64H172.621V16.12L173.101 18.424C172.701 18.248 171.997 18.064 170.989 17.872C169.981 17.664 168.765 17.56 167.341 17.56H163.285C162.805 17.56 162.517 17.6 162.421 17.68C162.341 17.744 162.301 17.944 162.301 18.28V21.016C162.301 21.368 162.341 21.576 162.421 21.64C162.517 21.704 162.797 21.736 163.261 21.736H167.221C168.149 21.736 168.893 21.688 169.453 21.592C170.029 21.48 170.405 21.368 170.581 21.256C170.469 21.56 170.357 21.952 170.245 22.432C170.149 22.896 170.101 23.304 170.101 23.656H163.261C162.797 23.656 162.517 23.688 162.421 23.752C162.341 23.8 162.301 24.008 162.301 24.376V28.6C162.301 29.128 162.357 29.504 162.469 29.728C162.581 29.936 162.693 30.04 162.805 30.04H159.109ZM174.783 30.04C174.895 30.04 174.999 29.928 175.095 29.704C175.207 29.48 175.263 29.112 175.263 28.6V14.92C175.263 14.408 175.207 14.048 175.095 13.84C174.999 13.616 174.895 13.496 174.783 13.48C175.487 13.48 176.095 13.432 176.607 13.336C177.135 13.224 177.503 13.112 177.711 13V28.6C177.711 29.112 177.759 29.48 177.855 29.704C177.967 29.928 178.079 30.04 178.191 30.04H174.783ZM186.428 30.28C184.828 30.28 183.572 30.024 182.66 29.512C181.764 29 181.132 28.304 180.764 27.424C180.412 26.544 180.236 25.552 180.236 24.448C180.236 23.328 180.42 22.328 180.788 21.448C181.172 20.568 181.812 19.872 182.708 19.36C183.604 18.832 184.844 18.568 186.428 18.568C188.012 18.568 189.252 18.832 190.148 19.36C191.044 19.872 191.676 20.568 192.044 21.448C192.428 22.328 192.62 23.328 192.62 24.448C192.62 25.552 192.436 26.544 192.068 27.424C191.716 28.304 191.092 29 190.196 29.512C189.3 30.024 188.044 30.28 186.428 30.28ZM186.428 28.576C187.42 28.576 188.188 28.416 188.732 28.096C189.276 27.776 189.652 27.312 189.86 26.704C190.068 26.08 190.172 25.328 190.172 24.448C190.172 23.568 190.06 22.816 189.836 22.192C189.628 21.568 189.252 21.088 188.708 20.752C188.18 20.416 187.42 20.248 186.428 20.248C185.452 20.248 184.692 20.424 184.148 20.776C183.604 21.112 183.22 21.6 182.996 22.24C182.788 22.864 182.684 23.608 182.684 24.472C182.684 25.32 182.788 26.056 182.996 26.68C183.204 27.288 183.58 27.76 184.124 28.096C184.668 28.416 185.436 28.576 186.428 28.576ZM197.652 30.04C197.764 30.04 197.836 29.936 197.868 29.728C197.916 29.504 197.844 29.128 197.652 28.6C197.572 28.392 197.42 28.024 197.196 27.496C196.972 26.968 196.708 26.36 196.404 25.672C196.116 24.968 195.812 24.264 195.492 23.56C195.172 22.84 194.876 22.192 194.604 21.616C194.332 21.024 194.116 20.584 193.956 20.296C193.684 19.784 193.436 19.416 193.212 19.192C192.988 18.952 192.828 18.824 192.732 18.808H196.644C196.5 18.808 196.404 18.92 196.356 19.144C196.308 19.368 196.404 19.752 196.644 20.296C196.772 20.568 196.948 20.984 197.172 21.544C197.396 22.088 197.644 22.72 197.916 23.44C198.204 24.144 198.492 24.864 198.78 25.6C199.068 26.336 199.332 27.024 199.572 27.664H199.596C199.836 27.008 200.092 26.312 200.364 25.576C200.636 24.824 200.9 24.088 201.156 23.368C201.428 22.648 201.668 22.016 201.876 21.472C202.084 20.912 202.244 20.504 202.356 20.248C202.58 19.736 202.668 19.368 202.62 19.144C202.572 18.92 202.484 18.808 202.356 18.808H206.196C206.052 18.808 205.956 18.92 205.908 19.144C205.86 19.368 205.956 19.752 206.196 20.296C206.324 20.568 206.492 20.984 206.7 21.544C206.924 22.088 207.164 22.72 207.42 23.44C207.692 24.144 207.964 24.864 208.236 25.6C208.508 26.336 208.756 27.024 208.98 27.664H209.004C209.276 27.008 209.564 26.312 209.868 25.576C210.172 24.824 210.476 24.088 210.78 23.368C211.084 22.648 211.348 22.016 211.572 21.472C211.812 20.912 211.988 20.504 212.1 20.248C212.324 19.736 212.412 19.368 212.364 19.144C212.316 18.92 212.228 18.808 212.1 18.808H215.868C215.772 18.808 215.62 18.92 215.412 19.144C215.22 19.352 214.996 19.712 214.74 20.224C214.596 20.496 214.388 20.912 214.116 21.472C213.844 22.032 213.54 22.664 213.204 23.368C212.868 24.056 212.54 24.744 212.22 25.432C211.9 26.12 211.62 26.752 211.38 27.328C211.14 27.888 210.98 28.312 210.9 28.6C210.756 29.128 210.7 29.504 210.732 29.728C210.764 29.936 210.82 30.04 210.9 30.04H207.06C207.172 30.04 207.244 29.936 207.276 29.728C207.324 29.504 207.252 29.128 207.06 28.6C207.012 28.456 206.892 28.128 206.7 27.616C206.508 27.104 206.276 26.488 206.004 25.768C205.732 25.032 205.452 24.272 205.164 23.488C204.876 22.704 204.596 21.96 204.324 21.256H204.252C203.996 21.928 203.716 22.648 203.412 23.416C203.108 24.168 202.82 24.904 202.548 25.624C202.276 26.328 202.044 26.952 201.852 27.496C201.66 28.024 201.54 28.392 201.492 28.6C201.348 29.128 201.292 29.504 201.324 29.728C201.356 29.936 201.412 30.04 201.492 30.04H197.652Z" fill="black"/>
<defs>
<clipPath id="clip0_73_81">
<rect width="55" height="49" fill="white"/>
</clipPath>
</defs>
</svg>
